<svg xmlns="http://www.w3.org/2000/svg" xmlns:xlink="http://www.w3.org/1999/xlink" height="663" viewBox="0 0 229 663" width="229"><svg height="221" viewBox="0 0 221 221" width="221" x="4" y="4"><defs><path d="M110.5,221 C171.527465,221 221,171.527465 221,110.5 C221,49.4725351 171.527465,0 110.5,0 C49.4725351,0 0,49.4725351 0,110.5 C0,171.527465 49.4725351,221 110.5,221 Z" id="path-1"/><mask id="mask-2" x="0" y="0" width="221" height="221" fill="#fff"><use xlink:href="#path-1"/></mask></defs><g id="Final" fill="none" fill-rule="evenodd" opacity=".699" stroke-dasharray="1,4"><g id="v1-1-4-mobile-floor" transform="translate(-77 -230)" stroke="#F5A623" stroke-width="48"><g id="Group" transform="translate(0 -44)"><g id="Group-5" transform="translate(20 111)"><g id="Group-4"><g id="round" transform="translate(57 163)"><g id="Screen"><g id="Dial"><g id="faded-ticks"><use id="Oval" mask="url(#mask-2)" xlink:href="#path-1"/></g></g></g></g></g></g></g></g></g></svg><svg height="27" viewBox="0 0 108 27" width="108" x="4" y="229"><g id="Final" fill="none" fill-rule="evenodd"><g id="v1-2-1-home-dashboard" transform="translate(-40 -105)"><path fill="#F8F8F8" d="M0 0H1366V768H0z"/><g id="header" transform="translate(0 72)" font-family="YandexSansLogotype-Light, Yandex Sans Logotype" font-size="31" font-weight="300"><text id="Яндекс-Дом"><tspan x="40" y="56" fill="red">Я</tspan> <tspan x="53.082" y="56" fill="#333">ндекс Дом</tspan></text></g></g></g></svg><svg height="75" viewBox="0 0 64 75" width="64" x="4" y="260"><defs><path d="M-42.5,91 C18.5274649,91 68,41.5274649 68,-19.5 C68,-80.5274649 18.5274649,-130 -42.5,-130 C-103.527465,-130 -153,-80.5274649 -153,-19.5 C-153,41.5274649 -103.527465,91 -42.5,91 Z" id="path-1"/><mask id="mask-2" x="0" y="0" width="221" height="221" fill="#fff"><use xlink:href="#path-1"/></mask></defs><g id="Final" fill="none" fill-rule="evenodd" opacity=".699" stroke-dasharray="1,4"><g id="v1-1-4-mobile-floor" transform="translate(-231 -361)" stroke="#333" stroke-width="48"><g id="Group" transform="translate(0 -44)"><g id="Group-5" transform="translate(20 111)"><g id="Group-4"><g id="round" transform="translate(57 163)"><g id="Screen"><g id="Dial"><g id="faded-ticks"><g id="Group-7" transform="translate(153 130)"><use id="Oval-Copy" mask="url(#mask-2)" xlink:href="#path-1"/></g></g></g></g></g></g></g></g></g></g></svg><svg height="36" viewBox="0 0 36 36" width="36" x="4" y="339"><g id="Final" fill="none" fill-rule="evenodd" stroke-linecap="round" stroke-linejoin="round"><g id="v1-1-2-mobile-light" transform="translate(-169 -210)" stroke="#FFF" stroke-width="3"><g id="Group" transform="translate(0 -44)"><g id="Group-5" transform="translate(20 111)"><g id="Group-6" transform="translate(137 130)"><g id="Group-7" transform="translate(12 13)"><g id="sun" transform="translate(2 2)"><circle id="Oval" cx="16" cy="16" r="7.273"/><path d="M16,0 L16,2.90909091" id="Shape"/><path d="M16,29.0909091 L16,32" id="Shape"/><path d="M4.68363636,4.68363636 L6.74909091,6.74909091" id="Shape"/><path d="M25.2509091,25.2509091 L27.3163636,27.3163636" id="Shape"/><path d="M0,16 L2.90909091,16" id="Shape"/><path d="M29.0909091,16 L32,16" id="Shape"/><path d="M4.68363636,27.3163636 L6.74909091,25.2509091" id="Shape"/><path d="M25.2509091,6.74909091 L27.3163636,4.68363636" id="Shape"/></g></g></g></g></g></g></g></svg><svg height="36" viewBox="0 0 36 36" width="36" x="4" y="379"><g id="Final" fill="none" fill-rule="evenodd" stroke-linecap="round" stroke-linejoin="round"><g id="v1-1-2-mobile-light" transform="translate(-169 -485)" stroke="#FFF" stroke-width="2"><g id="Group" transform="translate(0 -44)"><g id="Group-5" transform="translate(20 111)"><g id="Group-6" transform="translate(137 130)"><g id="Group-7" transform="translate(12 288)"><g id="sun" transform="translate(3 3)"><circle id="Oval" cx="15" cy="15" r="7.273"/><path d="M15,1 L15,1.90909091" id="Shape"/><path d="M15,28.0909091 L15,29" id="Shape"/><path d="M5,5 L5.74909091,5.74909091" id="Shape"/><path d="M24.2509091,24.2509091 L25,25" id="Shape"/><path d="M1,15 L1.90909091,15" id="Shape"/><path d="M28.0909091,15 L29,15" id="Shape"/><path d="M5,25 L5.74909091,24.2509091" id="Shape"/><path d="M24.2509091,5.74909091 L25,5" id="Shape"/></g></g></g></g></g></g></g></svg><svg height="26" viewBox="0 0 26 26" width="26" x="4" y="419"><g id="Final" fill="none" fill-rule="evenodd"><g id="v1-2-1-home-dashboard" transform="translate(-212 -365)"><path fill="#F8F8F8" d="M0 0H1366V768H0z"/><g id="status" transform="translate(39 195)"><g id="Group" transform="translate(1 40)"><g id="Group-2" transform="translate(-15 -596)"><g id="Group-3-Copy" transform="translate(120 699)"><g id="Group-4" transform="translate(67 27)"><path id="Rectangle-4" fill-rule="nonzero" d="M0 0H26V26H0z"/><g id="cloud-drizzle" transform="translate(1 2)" stroke="#333" stroke-linecap="round" stroke-linejoin="round" stroke-width="3"><path d="M14,18 L14,20" id="Shape"/><path d="M14,11 L14,13" id="Shape"/><path d="M9,20 L9,22" id="Shape"/><path d="M9,13 L9,15" id="Shape"/><path d="M20,15.58 C22.1666971,14.6310615 23.3719893,12.2936524 22.8885932,9.97818513 C22.4051971,7.66271783 20.3653864,6.00278331 18,6 L16.74,6 C15.8695943,2.62945307 12.9194928,0.208656038 9.44387933,0.0129425627 C5.96826587,-0.182770913 2.76504323,1.89152946 1.52174557,5.14305273 C0.2784479,8.394576 1.28050125,12.0768642 4,14.25" id="Shape"/></g></g></g></g></g></g></g></g></svg><svg height="24" viewBox="0 0 24 24" width="24" x="4" y="449"><g id="Final" fill="none" fill-rule="evenodd"><g id="v1-2-1-home-dashboard" transform="translate(-925 -250)"><path fill="#F8F8F8" d="M0 0H1366V768H0z"/><g id="scenarios" transform="translate(696 196)"><g id="Widget-Copy-4" transform="translate(215 40)"><g id="icon" transform="translate(14 14)"><path id="Rectangle" fill-rule="nonzero" d="M0 0H24V24H0z"/><g id="clock" transform="translate(2 2)" stroke="#000" stroke-linecap="round" stroke-linejoin="round" stroke-width="2"><circle id="Oval" cx="10" cy="10" r="10"/><path id="Shape" opacity=".3" d="M10 4L10 10 13 13"/></g></g></g></g></g></g></svg><svg height="24" viewBox="0 0 24 24" width="24" x="4" y="477"><g id="Final" fill="none" fill-rule="evenodd"><g id="v1-2-1-home-dashboard" transform="translate(-1140 -250)"><path fill="#F8F8F8" d="M0 0H1366V768H0z"/><g id="scenarios" transform="translate(696 196)"><g id="Widget-Copy-5" transform="translate(430 40)"><g id="icon" transform="translate(14 14)"><path id="Rectangle" fill-rule="nonzero" d="M0 0H24V24H0z"/><g id="sun" transform="translate(1 1)" stroke-linecap="round" stroke-linejoin="round" stroke-width="2"><circle id="Oval" stroke="#F5A623" cx="11" cy="11" r="5"/><path d="M11,0 L11,2" id="Shape" stroke="#FFD93E"/><path d="M11,20 L11,22" id="Shape" stroke="#FFD93E"/><path d="M3.22,3.22 L4.64,4.64" id="Shape" stroke="#FFD93E"/><path d="M17.36,17.36 L18.78,18.78" id="Shape" stroke="#FFD93E"/><path d="M0,11 L2,11" id="Shape" stroke="#FFD93E"/><path d="M20,11 L22,11" id="Shape" stroke="#FFD93E"/><path d="M3.22,18.78 L4.64,17.36" id="Shape" stroke="#FFD93E"/><path d="M17.36,4.64 L18.78,3.22" id="Shape" stroke="#FFD93E"/></g></g></g></g></g></g></svg><svg height="24" viewBox="0 0 24 24" width="24" x="4" y="505"><g id="Final" fill="none" fill-rule="evenodd"><g id="v1-2-1-home-dashboard" transform="translate(-464 -404)"><path fill="#F8F8F8" d="M0 0H1366V768H0z"/><g id="status" transform="translate(39 195)"><g id="Group" transform="translate(1 40)"><g id="Widget-Copy" transform="translate(410 155)"><g id="icon" transform="translate(14 14)"><path id="Rectangle" fill-rule="nonzero" d="M0 0H24V24H0z"/><g id="sun" transform="translate(1 1)" stroke="#333" stroke-linecap="round" stroke-linejoin="round" stroke-width="2"><circle id="Oval" stroke-opacity=".4" cx="11" cy="11" r="5"/><path d="M11,0 L11,2" id="Shape" stroke-opacity=".1"/><path d="M11,20 L11,22" id="Shape" stroke-opacity=".1"/><path d="M3.22,3.22 L4.64,4.64" id="Shape" stroke-opacity=".1"/><path d="M17.36,17.36 L18.78,18.78" id="Shape" stroke-opacity=".1"/><path d="M0,11 L2,11" id="Shape" stroke-opacity=".1"/><path d="M20,11 L22,11" id="Shape" stroke-opacity=".1"/><path d="M3.22,18.78 L4.64,17.36" id="Shape" stroke-opacity=".1"/><path d="M17.36,4.64 L18.78,3.22" id="Shape" stroke-opacity=".1"/></g></g></g></g></g></g></g></svg><svg height="24" viewBox="0 0 24 24" width="24" x="4" y="533"><g id="Final" fill="none" fill-rule="evenodd"><g id="v1-2-1-home-dashboard" transform="translate(-925 -365)"><path fill="#F8F8F8" d="M0 0H1366V768H0z"/><g id="scenarios" transform="translate(696 196)"><g id="Widget-Copy-7" transform="translate(215 155)"><g id="icon_temperature" transform="translate(14 14)"><path id="Rectangle" fill-rule="nonzero" d="M0 0H24V24H0z"/><g id="thermometer" transform="translate(7 1)"><path d="M7,13.76 L7,2.5 C7,1.11928813 5.88071187,0 4.5,0 C3.11928813,-2.22044605e-16 2,1.11928813 2,2.5 L2,13.76 C0.351885607,14.8611927 -0.381613186,16.911099 0.19375696,18.8079004 C0.769127106,20.7047019 2.51785305,22.0016574 4.5,22.0016574 C6.48214695,22.0016574 8.23087289,20.7047019 8.80624304,18.8079004 C9.38161319,16.911099 8.64811439,14.8611927 7,13.76 Z" id="Shape" stroke="#F5A623" stroke-width="2" stroke-linecap="round" stroke-linejoin="round"/><circle id="Oval-2" fill="#FFD93E" fill-rule="nonzero" cx="4.5" cy="17.5" r="3.5"/></g></g></g></g></g></g></svg><svg height="24" viewBox="0 0 24 24" width="24" x="4" y="561"><g id="Final" fill="none" fill-rule="evenodd"><g id="v1-2-1-home-dashboard" transform="translate(-464 -269)"><path fill="#F8F8F8" d="M0 0H1366V768H0z"/><g id="status" transform="translate(39 195)"><g id="Group" transform="translate(1 40)"><g id="Widget" transform="translate(410 20)"><g id="icon_temperature" transform="translate(14 14)"><path id="Rectangle" fill-rule="nonzero" d="M0 0H24V24H0z"/><path d="M14.0003489,14.76 L14.0003489,3.5 C14.0003489,2.11928813 12.8810608,1 11.5003489,1 C10.119637,1 9.00034891,2.11928813 9.00034891,3.5 L9.00034891,14.76 C7.35223452,15.8611927 6.61873572,17.911099 7.19410587,19.8079004 C7.76947602,21.7047019 9.51820196,23.0016574 11.5003489,23.0016574 C13.4824959,23.0016574 15.2312218,21.7047019 15.806592,19.8079004 C16.3819621,17.911099 15.6484633,15.8611927 14.0003489,14.76 Z" id="Shape" stroke-opacity=".4" stroke="#333" stroke-width="2" stroke-linecap="round" stroke-linejoin="round"/><circle id="Oval-2" fill-opacity=".1" fill="#333" fill-rule="nonzero" cx="11.5" cy="18.5" r="3.5"/></g></g></g></g></g></g></svg><svg height="16" viewBox="0 0 16 16" width="16" x="4" y="589"><defs><path d="M8,1 C8.4120206,1 8.67869581,1.16820615 9.01804372,1.50755406 L14.7437184,7.23322877 C15.0854272,7.57493753 15.0854272,8.12895688 14.7437184,8.47066564 C14.4020097,8.8123744 13.8479903,8.8123744 13.5062816,8.47066564 L8,2.96438407 L2.49371843,8.47066564 C2.15200968,8.8123744 1.59799032,8.8123744 1.25628157,8.47066564 C0.914572811,8.12895688 0.914572811,7.57493753 1.25628157,7.23322877 L7.00240491,1.48710543 C7.33493661,1.15457373 7.5879794,1 8,1 Z M8,7 C8.4120206,7 8.67869581,7.16820615 9.01804372,7.50755406 L14.7437184,13.2332288 C15.0854272,13.5749375 15.0854272,14.1289569 14.7437184,14.4706656 C14.4020097,14.8123744 13.8479903,14.8123744 13.5062816,14.4706656 L8,8.96438407 L2.49371843,14.4706656 C2.15200968,14.8123744 1.59799032,14.8123744 1.25628157,14.4706656 C0.914572811,14.1289569 0.914572811,13.5749375 1.25628157,13.2332288 L7.00240491,7.48710543 C7.33493661,7.15457373 7.5879794,7 8,7 Z" id="path-1"/></defs><g id="Final" fill="none" fill-rule="evenodd"><g id="v1-2-1-home-dashboard" transform="translate(-540 -538)"><path fill="#F8F8F8" d="M0 0H1366V768H0z"/><g id="status" transform="translate(39 195)" opacity=".3"><g id="Group" transform="translate(1 40)"><g id="Widget-Copy-3" transform="translate(410 290)"><g id="Group-5" transform="translate(90 13)"><g id="Icons-/-Arrow-Double-/-M"><g id="Direct-/-Icons-/-Arrow-Double-/-M"><path id="box" d="M0 0H16V16H0z"/><mask id="mask-2" fill="#fff"><use xlink:href="#path-1"/></mask><use id="icon_arrow-double_m" fill="#000" fill-rule="nonzero" xlink:href="#path-1"/><g id="Color-/-Black" mask="url(#mask-2)" fill="#333"><path d="M0 0L180 0 180 130 0 130z" transform="translate(-82 -57)" id="#333333"/></g></g></g></g></g></g></g></g></g></svg><svg height="14" viewBox="0 0 16 14" width="16" x="4" y="609"><defs><path d="M0,3.32630157 C0,2.77790036 0.444630861,2.33333333 1.00087166,2.33333333 L14.9991283,2.33333333 C15.5518945,2.33333333 16,2.7736791 16,3.32630157 L16,4.00703176 C16,4.55543298 15.5553691,5 14.9991283,5 L1.00087166,5 C0.448105505,5 0,4.55965424 0,4.00703176 L0,3.32630157 Z M0,8.65963491 C0,8.11123369 0.444630861,7.66666667 1.00087166,7.66666667 L14.9991283,7.66666667 C15.5518945,7.66666667 16,8.10701243 16,8.65963491 L16,9.34036509 C16,9.88876631 15.5553691,10.3333333 14.9991283,10.3333333 L1.00087166,10.3333333 C0.448105505,10.3333333 0,9.89298757 0,9.34036509 L0,8.65963491 Z M0,13.9929682 C0,13.444567 0.444630861,13 1.00087166,13 L14.9991283,13 C15.5518945,13 16,13.4403458 16,13.9929682 L16,14.6736984 C16,15.2220996 15.5553691,15.6666667 14.9991283,15.6666667 L1.00087166,15.6666667 C0.448105505,15.6666667 0,15.2263209 0,14.6736984 L0,13.9929682 Z" id="path-1"/></defs><g id="Final" fill="none" fill-rule="evenodd"><g id="v1-1-1-mobile-home" transform="translate(-339 -70)"><g id="Direct-/-Icons-/-List-/-M" transform="translate(339 68)"><mask id="mask-2" fill="#fff"><use xlink:href="#path-1"/></mask><use id="icon_list_m" fill="#333" xlink:href="#path-1"/></g></g></g></svg><svg height="14" viewBox="0 0 9 14" width="9" x="4" y="627"><defs><path d="M7.5,11.7269472 C7.11373069,11.7269472 6.87650307,11.5723735 6.5647546,11.2398418 L1.17776397,5.49371843 C0.85741201,5.15200968 0.85741201,4.59799032 1.17776397,4.25628157 C1.49811593,3.91457281 2.01750907,3.91457281 2.33786103,4.25628157 L7.5,9.76256313 L12.662139,4.25628157 C12.9824909,3.91457281 13.5018841,3.91457281 13.822236,4.25628157 C14.142588,4.59799032 14.142588,5.15200968 13.822236,5.49371843 C13.822236,5.49371843 10.2436893,9.31083491 8.45441599,11.2193931 C8.13627732,11.5587411 7.88626931,11.7269472 7.5,11.7269472 Z" id="path-1"/></defs><g id="Final" fill="none" fill-rule="evenodd"><g id="v1-3-1-home-dashboard-footer" transform="translate(-1283 -608)"><path fill="#F8F8F8" d="M0 0H1366V829H0z"/><g id="favorites" transform="translate(40 595)" opacity=".3"><g id="Icons-/-Arrow-Right-/-M-Copy" transform="matrix(-1 0 0 1 1255 12)"><g id="Direct-/-Icons-/-Arrow-Right-/-M"><path id="box" d="M0 0H15V16H0z"/><mask id="mask-2" fill="#fff"><use xlink:href="#path-1"/></mask><use id="icon_arrow-right_m" fill="#000" fill-rule="nonzero" transform="matrix(0 1 1 0 -.363 .363)" xlink:href="#path-1"/><g id="Color-/-Black" mask="url(#mask-2)" fill="#333"><path d="M0 0L169 0 169 130 0 130z" transform="translate(-76.875 -57)" id="#333333"/></g></g></g></g></g></g></svg><svg height="14" viewBox="0 0 9 14" width="9" x="4" y="645"><defs><path d="M7.5,11.7269472 C7.11373069,11.7269472 6.87650307,11.5723735 6.5647546,11.2398418 L1.17776397,5.49371843 C0.85741201,5.15200968 0.85741201,4.59799032 1.17776397,4.25628157 C1.49811593,3.91457281 2.01750907,3.91457281 2.33786103,4.25628157 L7.5,9.76256313 L12.662139,4.25628157 C12.9824909,3.91457281 13.5018841,3.91457281 13.822236,4.25628157 C14.142588,4.59799032 14.142588,5.15200968 13.822236,5.49371843 C13.822236,5.49371843 10.2436893,9.31083491 8.45441599,11.2193931 C8.13627732,11.5587411 7.88626931,11.7269472 7.5,11.7269472 Z" id="path-1"/></defs><g id="Final" fill="none" fill-rule="evenodd"><g id="v1-3-1-home-dashboard-footer" transform="translate(-1283 -608)"><path fill="#none" d="M0 0H1366V829H0z"/><g id="favorites" transform="translate(40 595)" opacity=".3"><g id="Icons-/-Arrow-Right-/-M-Copy" transform="matrix(-1 0 0 1 1255 12)"><g id="Direct-/-Icons-/-Arrow-Right-/-M"><path id="box" d="M0 0H15V16H0z"/><mask id="mask-2" fill="#fff"><use xlink:href="#path-1"/></mask><g id="Color-/-Black" mask="url(#mask-2)" fill="#333"><path d="M0 0L169 0 169 130 0 130z" transform="translate(-76.875 -57)" id="#333333"/></g></g></g></g></g></g></svg></svg>